<?xml version="1.0" standalone="no"?>
<!DOCTYPE svg PUBLIC "-//W3C//DTD SVG 20010904//EN"
 "http://www.w3.org/TR/2001/REC-SVG-20010904/DTD/svg10.dtd">
<svg version="1.0" xmlns="http://www.w3.org/2000/svg"
 width="229.000000pt" height="220.000000pt" viewBox="0 0 229.000000 220.000000"
 preserveAspectRatio="xMidYMid meet">
<metadata>
Created by potrace 1.10, written by Peter Selinger 2001-2011
</metadata>
<g transform="translate(0.000000,220.000000) scale(0.100000,-0.100000)"
fill="#000000" stroke="none">
<path d="M562 1961 c2 -4 18 -32 36 -62 44 -72 96 -161 167 -289 32 -58 77
-136 100 -175 22 -38 47 -85 54 -102 7 -18 16 -33 20 -33 4 0 14 21 24 46 l16
45 -36 57 c-20 31 -59 93 -87 137 -29 44 -81 129 -116 188 -52 87 -70 109 -92
114 -28 5 -33 17 -22 47 5 13 24 16 109 16 l103 0 27 -32 c40 -48 51 -76 36
-91 -11 -10 -12 -7 -6 12 5 16 4 21 -4 17 -6 -4 -13 4 -16 17 -4 14 -18 31
-32 38 -31 17 -161 17 -189 1 -17 -10 -17 -11 6 -10 64 4 190 -3 188 -9 -2 -7
45 -94 108 -198 13 -22 25 -44 27 -50 3 -5 7 -7 11 -4 7 6 -34 89 -71 145 -13
21 -14 27 -3 37 10 10 12 8 6 -7 -4 -13 -2 -17 8 -13 9 4 13 1 10 -6 -2 -7 5
-23 16 -35 12 -12 18 -26 15 -31 -3 -5 0 -13 6 -17 8 -4 9 -3 5 4 -4 7 -4 12
1 12 4 -1 19 -24 33 -53 14 -29 29 -55 34 -58 4 -4 4 -15 -2 -25 -11 -20 -11
-21 -34 46 -5 13 -7 13 -12 -1 -7 -16 52 -133 120 -240 13 -21 24 -41 24 -44
0 -2 16 -30 36 -60 l35 -56 -25 -34 c-36 -46 -47 -80 -33 -94 9 -9 7 -20 -7
-46 -11 -19 -22 -35 -26 -35 -9 0 -75 109 -85 139 -3 12 -11 19 -16 16 -11 -8
-12 5 0 23 6 10 12 8 23 -10 19 -28 65 -78 72 -78 9 0 -7 33 -25 55 -10 11
-27 31 -38 44 -25 29 -26 35 -6 51 8 7 15 17 15 23 0 6 7 18 15 27 15 17 11
50 -6 50 -5 0 -9 7 -9 15 0 8 -4 15 -10 15 -5 0 -10 -6 -10 -12 0 -7 -18 -41
-40 -75 l-39 -63 49 -80 c28 -44 62 -105 77 -135 15 -30 30 -55 33 -55 3 0 16
21 30 48 13 26 27 49 31 52 3 3 20 30 36 60 17 30 39 69 48 85 l17 30 -96 159
c-53 87 -96 160 -96 163 0 3 -13 23 -29 46 -15 23 -48 76 -71 117 -24 41 -61
102 -82 135 -21 33 -38 65 -38 71 0 7 -7 15 -16 18 -24 9 -306 7 -302 -3z
m104 -105 c4 -12 16 -29 27 -38 11 -10 17 -18 14 -18 -3 0 -1 -13 4 -30 6 -16
14 -28 18 -26 11 7 73 -103 67 -119 -3 -8 0 -12 7 -9 7 2 20 -9 30 -26 10 -16
15 -30 11 -30 -4 0 2 -11 15 -23 14 -16 19 -31 15 -43 -4 -14 -3 -15 4 -5 11
15 10 16 53 -63 22 -43 24 -53 13 -64 -11 -10 -16 -7 -27 15 -8 16 -17 41 -21
56 -4 15 -10 25 -15 22 -12 -7 -54 83 -47 101 3 9 0 11 -11 7 -12 -5 -15 -2
-10 10 4 10 2 14 -6 12 -7 -3 -19 10 -28 28 -8 17 -34 67 -58 110 -23 42 -39
77 -36 77 4 0 -1 7 -9 16 -9 8 -16 22 -16 30 0 8 -4 13 -9 10 -5 -3 -11 0 -14
7 -3 8 1 14 9 14 7 0 17 -10 20 -21z m410 -282 c-3 -8 -2 -13 3 -10 10 6 31
-37 31 -64 0 -11 4 -20 10 -20 15 0 72 -89 64 -102 -4 -7 -3 -8 4 -4 7 4 12 1
12 -8 0 -9 5 -16 11 -16 6 0 9 -7 6 -14 -4 -9 -1 -13 6 -11 7 3 20 -13 29 -36
17 -40 17 -43 -1 -68 -10 -14 -28 -46 -41 -70 -15 -30 -25 -40 -32 -33 -14 14
-2 45 14 36 7 -4 10 -4 6 0 -4 5 3 25 15 45 25 41 26 104 1 94 -12 -5 -19 7
-15 30 0 4 -4 7 -9 7 -5 0 -10 5 -10 11 0 6 -9 22 -20 36 -13 17 -18 34 -14
47 5 17 4 18 -6 9 -10 -9 -17 -4 -31 25 -11 20 -19 41 -19 47 0 6 -9 21 -21
34 -21 22 -20 51 2 51 6 0 8 -7 5 -16z m-22 -272 c-4 -12 -10 -22 -15 -22 -5
0 -9 -13 -9 -29 0 -29 -19 -55 -21 -29 -2 24 3 53 10 58 5 3 11 18 15 34 4 17
11 25 16 20 5 -5 7 -19 4 -32z"/>
<path d="M1349 1868 c-35 -56 -67 -111 -71 -121 -4 -10 -19 -33 -33 -51 -14
-18 -25 -38 -25 -44 0 -7 -4 -12 -10 -12 -5 0 -10 -5 -10 -12 0 -6 -7 -19 -16
-29 -15 -16 -15 -21 2 -58 10 -23 20 -41 23 -41 3 1 33 49 65 108 32 59 81
144 108 190 39 67 47 86 38 101 -18 35 -10 47 13 19 20 -25 29 -28 95 -30 l72
-3 -33 -55 c-18 -30 -66 -111 -107 -180 -40 -69 -81 -137 -91 -152 -11 -15
-19 -30 -19 -32 0 -3 -14 -28 -30 -55 -30 -48 -30 -49 -13 -80 10 -17 21 -31
24 -31 3 0 15 17 26 38 28 50 61 108 88 157 13 22 55 96 94 165 38 69 74 130
79 136 6 6 18 26 27 45 10 19 21 36 24 39 8 7 42 72 39 75 -2 1 -69 5 -149 9
l-145 7 -65 -103z m313 57 c3 -14 1 -23 -6 -22 -6 1 -12 -5 -12 -13 -1 -8 -2
-21 -3 -29 -1 -8 -7 -11 -17 -7 -11 4 -14 1 -9 -13 6 -18 -17 -51 -35 -51 -5
0 -7 -7 -4 -15 8 -19 -34 -87 -48 -79 -6 4 -8 -2 -3 -17 5 -19 4 -21 -4 -9 -9
13 -11 12 -12 -5 -1 -11 -1 -23 0 -27 1 -10 -3 -10 -24 -2 -14 6 -14 8 1 25
10 11 22 29 29 42 6 12 17 21 24 19 8 -2 10 4 6 18 -7 24 20 74 35 65 6 -4 7
1 3 11 -5 13 -2 16 8 12 13 -5 17 18 11 70 -2 8 -25 12 -81 12 -61 0 -80 3
-85 15 -4 12 4 15 39 15 29 0 45 -4 45 -12 0 -10 2 -10 8 -1 4 6 30 13 57 16
28 2 55 4 61 5 7 1 14 -9 16 -23z m-262 -67 c0 -6 -7 -8 -14 -5 -10 4 -13 1
-9 -10 3 -8 2 -18 -3 -22 -12 -8 -32 -40 -44 -71 -6 -14 -14 -32 -20 -40 -5
-8 -17 -31 -27 -50 -9 -19 -20 -37 -24 -40 -3 -3 -14 -19 -23 -37 -11 -21 -21
-30 -31 -27 -18 7 -18 4 1 42 8 18 22 32 30 32 8 0 14 5 14 11 0 5 -4 7 -10 4
-6 -3 -7 1 -4 10 4 9 12 14 19 11 8 -3 11 2 8 15 -4 13 0 19 11 19 9 0 16 6
14 13 -3 19 42 98 52 92 6 -3 7 1 4 9 -3 9 -2 16 4 16 6 0 13 14 17 30 6 25 9
29 21 19 8 -6 14 -16 14 -21z m90 -243 c0 -8 -4 -15 -10 -15 -5 0 -10 -6 -10
-13 0 -7 -9 -30 -20 -52 -11 -22 -20 -34 -20 -27 0 7 -5 10 -10 7 -7 -4 -7
-11 -2 -18 11 -14 -41 -90 -53 -79 -5 4 -5 -1 -2 -11 4 -11 -1 -24 -13 -34
-10 -9 -17 -20 -14 -25 3 -4 1 -8 -5 -8 -5 0 -9 12 -7 28 1 15 8 26 15 24 7
-1 10 2 7 7 -4 5 5 29 18 53 14 23 34 60 46 81 11 21 25 35 30 32 6 -4 10 4
10 17 0 24 16 48 32 48 4 0 8 -7 8 -15z"/>
<path d="M897 884 c-1 -1 -1 -79 1 -173 3 -163 4 -171 23 -171 19 0 20 6 16
140 -4 129 -3 139 11 118 9 -13 71 -78 139 -146 l123 -122 0 174 c0 160 -1
174 -17 172 -16 -3 -18 -17 -18 -140 0 -108 3 -135 13 -131 7 3 10 0 7 -5 -10
-15 -25 -12 -32 8 -6 16 -260 281 -266 276z"/>
<path d="M1407 883 c-4 -3 -7 -12 -7 -18 0 -7 -33 -79 -72 -161 -40 -82 -74
-152 -76 -156 -2 -5 6 -8 18 -8 16 0 26 12 42 50 l21 50 76 0 77 0 17 -35 c9
-20 17 -42 17 -50 0 -9 10 -15 26 -15 14 0 23 3 21 8 -3 4 -15 30 -27 57 -12
28 -33 75 -48 105 -14 30 -37 83 -52 117 -15 35 -30 60 -33 56z m13 -84 c0 -5
13 -37 29 -69 l29 -58 -65 -4 c-36 -2 -67 0 -70 5 -2 4 0 7 4 7 5 0 20 29 34
65 22 58 39 83 39 54z"/>
<path d="M300 870 c0 -10 15 -49 57 -152 9 -21 20 -35 26 -31 6 3 7 1 3 -5 -4
-6 5 -46 20 -88 24 -67 29 -74 36 -54 5 13 6 31 2 39 -4 9 -9 24 -10 33 -2 9
-26 72 -52 140 -32 80 -55 124 -66 126 -9 2 -16 -2 -16 -8z"/>
<path d="M530 868 c0 -11 -53 -154 -72 -195 -6 -12 -8 -29 -4 -38 3 -9 2 -13
-4 -10 -10 6 -9 -30 2 -40 4 -5 118 270 118 285 0 11 -40 8 -40 -2z"/>
<path d="M650 783 c-23 -54 -58 -128 -76 -165 -19 -37 -34 -69 -34 -72 0 -3
10 -4 22 -3 15 3 27 18 40 53 l19 49 77 -3 78 -3 19 -50 c13 -33 25 -49 37
-49 24 0 23 8 -10 76 -16 33 -49 105 -73 161 -24 57 -47 103 -50 103 -3 0 -25
-44 -49 -97z m84 -52 c15 -38 33 -72 39 -74 7 -2 3 -2 -8 1 -11 3 -48 6 -82 6
-54 1 -60 3 -48 16 23 27 57 118 49 132 -6 10 -5 11 7 1 9 -7 28 -44 43 -82z"/>
<path d="M1646 853 c-34 -170 -57 -305 -52 -310 3 -3 11 -3 19 0 16 6 52 193
42 219 -4 9 -2 25 4 35 9 16 10 14 11 -10 0 -16 4 -26 9 -22 5 3 13 0 17 -6 4
-8 3 -9 -4 -5 -18 11 -16 5 33 -95 25 -51 45 -99 45 -106 0 -32 19 -6 63 87
26 56 45 105 42 109 -3 5 2 12 11 15 12 5 14 13 9 34 -4 15 -3 23 1 19 4 -4 9
-25 10 -47 1 -22 10 -83 20 -135 15 -79 21 -95 36 -95 23 0 23 -5 -12 152 -16
73 -30 143 -30 155 0 12 -4 24 -8 27 -11 7 -94 -183 -86 -196 4 -7 2 -8 -4 -4
-11 7 -29 -37 -24 -61 1 -6 -2 -14 -8 -18 -6 -4 -10 -3 -9 2 3 11 -6 31 -62
152 -27 56 -49 109 -49 117 0 25 -18 15 -24 -13z"/>
<path d="M1370 438 c-1 -2 -1 -37 -2 -78 -2 -75 -2 -75 26 -78 34 -4 66 22 66
54 0 27 -34 54 -59 47 -15 -4 -18 0 -14 20 3 14 0 28 -6 31 -6 4 -11 6 -11 4z
m68 -112 c-2 -15 -10 -21 -28 -21 -21 0 -24 4 -21 25 1 14 8 28 14 32 17 10
38 -12 35 -36z"/>
<path d="M1668 429 c-28 -16 -21 -46 17 -75 19 -14 35 -30 35 -36 0 -15 -32
-22 -51 -9 -16 9 -19 8 -19 -4 0 -36 74 -30 86 7 5 18 -1 28 -31 54 -41 34
-40 60 1 50 14 -4 24 -2 24 4 0 5 -4 10 -9 10 -5 0 -15 2 -23 5 -7 2 -21 0
-30 -6z"/>
<path d="M1790 432 c-25 -3 -25 -5 -23 -75 l1 -72 39 -1 c21 -1 44 3 51 8 17
14 15 55 -3 62 -13 4 -13 9 -4 24 23 37 -4 61 -61 54z m41 -22 c5 0 9 -9 9
-20 0 -15 -7 -20 -25 -20 -20 0 -25 5 -25 26 0 20 4 25 16 20 9 -3 20 -6 25
-6z m14 -85 c0 -14 -8 -21 -26 -23 -22 -3 -27 2 -31 23 -5 24 -3 26 26 23 23
-2 31 -8 31 -23z"/>
<path d="M1906 424 c-24 -24 -20 -39 21 -71 42 -34 38 -58 -8 -48 -37 8 -39
-12 -2 -21 33 -9 57 6 61 37 2 18 -6 30 -33 47 -19 12 -35 27 -35 32 0 17 27
22 49 10 17 -8 21 -8 21 3 0 8 -10 17 -22 21 -32 8 -35 8 -52 -10z"/>
<path d="M1537 361 c-14 -38 -23 -39 -31 -6 -4 14 -13 25 -22 25 -13 0 -11 -7
7 -39 21 -38 21 -41 6 -65 -18 -27 -22 -46 -9 -46 14 0 82 149 71 156 -5 3
-15 -8 -22 -25z"/>
</g>
</svg>
